<svg width="32" height="40" viewBox="0 0 32 40" fill="none" xmlns="http://www.w3.org/2000/svg">
<g clip-path="url(#clip0_0_598)">
<path d="M8.85344 39.0187C7.83916 39.0187 6.50794 38.6991 4.73295 37.8681C3.52848 37.2928 2.38745 35.8866 1.75352 33.969C0.802627 31.0925 1.05618 27.9604 2.45082 25.2758C3.71868 22.8468 6.00085 21.9519 7.71244 21.6323C9.61422 21.3127 11.5159 21.5684 12.0231 22.0158C12.1499 22.1436 12.1499 22.3354 12.0231 22.4633C11.8963 22.5911 11.7062 22.5911 11.5794 22.4633C11.3258 22.2076 9.741 21.888 7.77583 22.2076C6.2544 22.4633 4.16244 23.2942 3.02137 25.5314C1.69013 28.0244 1.49995 31.0286 2.38745 33.7133C2.95798 35.4391 3.97225 36.7176 4.98653 37.2289C9.67761 39.4022 10.7552 37.7403 11.3892 36.7815C11.6427 36.4619 11.833 36.1423 12.1499 36.1423C12.4035 36.1423 12.657 36.334 12.974 36.5897C13.5445 37.1011 14.4954 37.996 16.524 37.996C17.982 38.0599 20.6445 36.2701 22.2293 33.5855C23.1168 32.0514 24.3213 29.0471 22.4196 25.7871C19.8838 21.5044 15.5097 22.2076 13.6713 22.5272C12.974 22.655 12.7205 22.7189 12.5303 22.3993C12.4669 22.3354 12.4035 22.1436 12.5937 21.9519C12.7839 21.7601 12.9106 21.5044 13.0374 21.2488C12.657 21.1209 12.4668 20.8013 12.4034 20.4178C12.0865 16.0712 10.1847 14.7288 9.17041 13.9618C8.72666 13.6422 8.40976 13.3865 8.40976 13.0669C8.40976 12.8751 8.47315 12.6834 8.66333 12.4916C8.85351 12.2359 9.17041 11.9803 9.48737 11.7885L9.61422 11.6607C9.86779 11.4689 10.5651 11.0214 11.516 11.9803C12.974 13.4504 14.5588 17.797 13.9249 20.7374C16.0168 20.4178 21.3419 16.8382 24.8285 8.4007C25.8428 5.97172 27.8713 4.18192 29.2025 3.03135C29.773 2.5839 30.407 1.94469 30.4704 1.75293C30.2802 1.56117 28.949 1.49724 26.5401 1.62508C21.2151 1.81685 18.3624 5.46034 17.0945 7.63365C15.2561 10.7658 14.6856 14.6649 15.7633 16.7743C15.9535 17.1578 16.1437 17.3496 16.3338 17.3496C17.0312 17.3496 18.1088 14.7928 19.0597 12.4916C20.5811 8.91207 22.4829 4.43762 25.0187 3.28705C25.1454 3.22313 25.3356 3.28705 25.4624 3.4149C25.5258 3.54274 25.4624 3.73447 25.3356 3.86231C23.0535 4.94896 21.215 9.29559 19.6936 12.7473C18.299 16.0712 17.4115 17.9249 16.3972 17.9888C15.6999 18.0527 15.3829 17.2857 15.2561 17.03C14.0516 14.6649 14.6222 10.6379 16.5874 7.25013C17.9187 5.01291 20.9615 1.17765 26.5401 0.921972C30.2169 0.794131 30.9141 0.985908 31.1043 1.49728C31.2945 2.00864 30.724 2.51999 29.6463 3.4788C28.3785 4.62937 26.4132 6.29131 25.3989 8.59246C21.849 17.1578 16.1436 21.2488 13.6713 21.3766C13.6079 21.5684 13.4812 21.7601 13.4178 21.9519C13.4812 21.9519 13.5445 21.9519 13.6079 21.9519C15.4463 21.6323 20.2642 20.8652 22.9901 25.5314C24.5115 28.0883 24.4481 31.0925 22.7999 33.969C21.2785 36.5897 18.4892 38.763 16.5874 38.6991C14.3053 38.6352 13.2275 37.6125 12.657 37.1011C12.5302 36.9732 12.3401 36.8454 12.2767 36.7815C12.2767 36.7815 12.1499 37.0372 12.0231 37.165C11.4525 37.9321 10.7552 39.0187 8.85344 39.0187ZM10.2481 12.1081C10.1214 12.1081 9.99458 12.172 9.93118 12.2359L9.80433 12.3638C9.55076 12.5555 9.23386 12.8751 9.04368 13.0669C8.98029 13.1308 8.98029 13.1948 8.98029 13.1948C8.98029 13.2587 9.29719 13.4504 9.48737 13.6422C10.565 14.4092 12.5936 15.9433 12.974 20.5456C12.974 20.6735 13.0374 20.8013 13.1642 20.8652C13.8615 18.1806 12.3401 13.9618 10.9455 12.6195C10.6919 12.172 10.4383 12.1081 10.2481 12.1081Z" fill="#21201E" stroke="#21201E" stroke-width="0.8"/>
<g opacity="0.2">
<path d="M2.82803 24.2368C3.76429 21.7414 8.77719 21.6127 11.1666 21.8602H12.0444H13.5073H17.4571C19.7978 21.8602 20.2367 22.4544 21.2607 23.3456C22.2847 24.2368 23.4551 27.6531 23.7476 28.8414C24.0402 30.0296 21.2607 35.674 18.7737 37.902C16.7842 39.6844 13.4585 37.5554 12.0444 36.2681C11.7518 36.6642 10.6692 37.694 8.67967 38.6446C6.19272 39.8329 4.14465 36.1196 2.38915 34.7827C0.633663 33.4459 1.6577 27.356 2.82803 24.2368Z" fill="#21201E"/>
<path d="M13.5073 20.0778C13.5073 18.741 15.4091 7.74943 16.4331 6.70968C17.4571 5.66994 18.4812 2.55071 20.5292 2.25364C22.5773 1.95657 25.3568 0.174158 27.5512 0.174158H30.8806C30.9475 0.169676 31.0083 0.16995 31.0622 0.174158H30.8806C30.1602 0.222407 28.7291 0.821765 27.5512 2.99632C25.942 5.96701 25.0643 9.53185 23.7476 11.0172C22.431 12.5025 21.407 15.0276 20.0904 15.9188C18.7737 16.81 20.5292 15.0276 17.896 17.5527C15.0872 19.5728 13.7999 20.0778 13.5073 20.0778Z" fill="#21201E"/>
<path d="M8.67967 11.7599C8.97225 11.5123 9.64519 11.0172 9.99629 11.0172L12.7758 15.7703L12.3369 19.6322C12.2394 18.6915 11.8688 16.513 11.1666 15.3247C10.4644 14.1364 9.21607 12.453 8.67967 11.7599Z" fill="#21201E"/>
</g>
</g>
<defs>
<clipPath id="clip0_0_598">
<rect width="30.754" height="38.9916" fill="white" transform="translate(0.732422 0.601166)"/>
</clipPath>
</defs>
</svg>
