<svg width="90" height="115" viewBox="0 0 90 115" fill="none" xmlns="http://www.w3.org/2000/svg">
<g clip-path="url(#clip0_0_12046)">
<path d="M24.0151 112.449C21.069 112.449 17.2024 111.521 12.0469 109.107C8.54844 107.436 5.23424 103.352 3.39296 97.7817C0.631046 89.427 1.36751 80.3296 5.41831 72.5319C9.10086 65.4767 15.7295 62.8775 20.701 61.9492C26.2248 61.0209 31.7484 61.7635 33.2214 63.0631C33.5897 63.4345 33.5897 63.9914 33.2214 64.3628C32.8532 64.7341 32.301 64.7341 31.9327 64.3628C31.1962 63.6201 26.593 62.6918 20.8851 63.6201C16.466 64.3628 10.3898 66.7764 7.07551 73.2745C3.20883 80.5153 2.65645 89.2413 5.23424 97.0391C6.89139 102.052 9.83737 105.765 12.7834 107.25C26.4089 113.563 29.5389 108.736 31.3802 105.951C32.1167 105.023 32.6692 104.094 33.5899 104.094C34.3264 104.094 35.0627 104.651 35.9834 105.394C37.6405 106.879 40.4024 109.478 46.2945 109.478C50.5294 109.664 58.2628 104.466 62.866 96.6678C65.4438 92.2119 68.9424 83.4858 63.4185 74.0171C56.0534 61.5779 43.3485 63.6201 38.0088 64.5484C35.9834 64.9198 35.247 65.1054 34.6946 64.1771C34.5105 63.9914 34.3264 63.4345 34.8788 62.8775C35.4312 62.3205 35.7992 61.5779 36.1675 60.8352C35.0627 60.4639 34.5103 59.5356 34.3262 58.4216C33.4056 45.7967 27.8817 41.8978 24.9357 39.6699C23.6468 38.7416 22.7264 37.9989 22.7264 37.0706C22.7264 36.5136 22.9105 35.9566 23.4629 35.3997C24.0152 34.657 24.9357 33.9144 25.8563 33.3574L26.2248 32.9861C26.9613 32.4291 28.9867 31.1294 31.7486 33.9144C35.9835 38.1846 40.5865 50.8095 38.7453 59.3499C44.8215 58.4216 60.2884 48.0246 70.4154 23.5174C73.3614 16.4622 79.2533 11.2637 83.12 7.92177C84.7772 6.62215 86.6184 4.76554 86.8026 4.20855C86.2502 3.65157 82.3837 3.46589 75.3868 3.83721C59.9201 4.3942 51.6342 14.9769 47.9516 21.2894C42.6119 30.3868 40.955 41.7121 44.0852 47.8389C44.6375 48.9529 45.1899 49.5099 45.7423 49.5099C47.7677 49.5099 50.8977 42.0834 53.6596 35.3997C58.0787 25.0026 63.6027 12.0064 70.9678 8.66447C71.336 8.47881 71.8884 8.66449 72.2567 9.03581C72.4408 9.40714 72.2567 9.96403 71.8884 10.3353C65.2598 13.4916 59.9199 26.1166 55.5009 36.1423C51.4501 45.7967 48.8725 51.1808 45.9264 51.3665C43.901 51.5522 42.9802 49.3242 42.6119 48.5816C39.1135 41.7121 40.7709 30.0155 46.4788 20.1755C50.3455 13.6773 59.1836 2.53763 75.3868 1.79499C86.0662 1.42366 88.0914 1.98069 88.6438 3.46598C89.1962 4.95127 87.5393 6.4365 84.4091 9.22142C80.7265 12.5633 75.0184 17.3905 72.0723 24.0743C61.7612 48.9529 45.1897 60.8352 38.0088 61.2065C37.8246 61.7635 37.4566 62.3205 37.2724 62.8775C37.4566 62.8775 37.6405 62.8775 37.8246 62.8775C43.1643 61.9492 57.1582 59.7212 65.0757 73.2745C69.4948 80.7009 69.3104 89.427 64.5233 97.7817C60.1042 105.394 52.0026 111.706 46.4788 111.521C39.8502 111.335 36.7199 108.364 35.0627 106.879C34.6945 106.508 34.1423 106.136 33.9581 105.951C33.9581 105.951 33.5897 106.693 33.2214 107.065C31.5643 109.293 29.5389 112.449 24.0151 112.449ZM28.0661 34.2857C27.6978 34.2857 27.3295 34.4713 27.1454 34.657L26.777 35.0283C26.0405 35.5853 25.12 36.5136 24.5676 37.0706C24.3835 37.2563 24.3835 37.4419 24.3835 37.4419C24.3835 37.6276 25.304 38.1846 25.8563 38.7416C28.9865 40.9695 34.8786 45.4253 35.9834 58.7929C35.9834 59.1643 36.1677 59.5356 36.5359 59.7212C38.5613 51.9235 34.1423 39.6699 30.0915 35.771C29.3549 34.4713 28.6184 34.2857 28.0661 34.2857Z" fill="#D99459" stroke="#D99459" stroke-width="1.19634"/>
<g opacity="0.2">
<path d="M6.51636 69.5178C9.23578 62.2698 23.796 61.8959 30.7362 62.615H33.2857H37.5348H49.0073C55.8059 62.615 57.0806 64.3407 60.055 66.9292C63.0294 69.5178 66.4286 79.4406 67.2785 82.892C68.1283 86.3434 60.055 102.738 52.8315 109.209C47.0528 114.386 37.3931 108.202 33.2857 104.463C32.4359 105.614 29.2915 108.605 23.5128 111.366C16.2893 114.818 10.3405 104.032 5.24163 100.149C0.142708 96.2663 3.11708 78.5778 6.51636 69.5178Z" fill="#D99459"/>
<path d="M37.5348 57.4378C37.5348 53.555 43.0586 21.6294 46.033 18.6094C49.0073 15.5894 51.9817 6.52948 57.9305 5.66663C63.8792 4.80378 71.9525 -0.373345 78.3261 -0.373345H87.9965C88.1909 -0.386363 88.3675 -0.385568 88.524 -0.373345H87.9965C85.9041 -0.233203 81.7475 1.50766 78.3261 7.82376C73.6521 16.4523 71.1027 26.8066 67.2785 31.1208C63.4543 35.4351 60.4799 42.7693 56.6557 45.3579C52.8315 47.9465 57.9305 42.7694 50.2821 50.1036C42.1238 55.971 38.3846 57.4378 37.5348 57.4378Z" fill="#D99459"/>
<path d="M23.5128 33.278C24.3626 32.5589 26.3172 31.1208 27.3369 31.1208L35.4102 44.9265L34.1355 56.1436C33.8522 53.4112 32.7758 47.0836 30.7362 43.6322C28.6966 40.1808 25.0708 35.2913 23.5128 33.278Z" fill="#D99459"/>
</g>
</g>
<defs>
<clipPath id="clip0_0_12046">
<rect width="89.3265" height="113.253" fill="white" transform="translate(0.437988 0.866211)"/>
</clipPath>
</defs>
</svg>
