<svg width="18" height="18" viewBox="0 0 18 18" fill="none" xmlns="http://www.w3.org/2000/svg">
<path d="M8.76296 17.365L7.96746 16.605C7.77918 16.4251 7.77918 16.1334 7.96746 15.9535L14.2004 9.99811H0.482143C0.215879 9.99811 0 9.79185 0 9.53744V8.46253C0 8.20812 0.215879 8.00185 0.482143 8.00185H14.2004L7.96746 2.04647C7.77918 1.86658 7.77918 1.57489 7.96746 1.39496L8.76296 0.63492C8.95123 0.455027 9.25651 0.455027 9.44483 0.63492L17.8588 8.67425C18.0471 8.85414 18.0471 9.14582 17.8588 9.32576L9.44483 17.3651C9.25655 17.545 8.95127 17.545 8.76296 17.365Z" fill="#21201E"/>
</svg>
