<svg width="65" height="116" viewBox="0 0 65 116" fill="none" xmlns="http://www.w3.org/2000/svg">
<g clip-path="url(#clip0_0_12051)">
<path opacity="0.2" d="M30.436 111.771L34.6624 114.188L36.4734 115.396L38.8885 110.563L42.5112 106.938C43.3162 105.528 45.047 102.346 45.53 100.896C46.0131 99.4462 42.5112 98.2781 40.6998 97.8753C42.1087 96.667 44.9263 94.1295 44.9263 93.6462C44.9263 93.1628 43.3162 91.0281 42.5112 90.0212C43.3162 89.417 44.9263 87.8462 44.9263 86.3962C44.9263 84.9462 42.9137 83.7781 41.9074 83.3753C42.7124 83.1739 44.4432 82.0462 44.9263 79.1462C45.4093 76.2462 43.5175 72.7017 42.5112 71.292L44.3225 69.4795L54.5866 59.2087L63.6432 38.0628L60.0206 17.5212L44.3225 3.62533L24.3982 2.41699L11.7187 11.4795L2.66211 30.2087C4.27217 38.8684 7.61305 56.792 8.09607 59.2087C8.57909 61.6253 19.9703 71.4934 25.6055 76.1253C24.3982 75.9239 21.9836 76.1253 21.9836 78.542C21.9836 80.9587 23.5934 83.5767 24.3982 84.5837V90.0212C23.7946 90.2225 22.4666 91.3503 21.9836 94.2503C21.3798 97.8753 26.2096 97.2712 24.3982 100.292C22.9492 102.709 27.0146 104.521 29.2284 105.125L30.436 111.771Z" fill="#D99459"/>
<path d="M38.5594 114.788H30.9486C30.4297 114.788 30.0837 114.442 30.0837 113.923V108.729C30.0837 108.209 30.4297 107.863 30.9486 107.863C31.4675 107.863 31.8134 108.209 31.8134 108.729V113.057H37.3484C37.1754 111.845 37.0026 110.114 37.6945 108.902C38.2134 108.036 39.2513 107.517 40.4621 106.824C42.0188 106.132 43.0567 105.439 43.0567 104.747C42.3648 104.574 39.9432 104.92 38.0405 105.093C33.3702 105.785 27.6621 106.478 24.8945 104.4C23.8567 103.708 23.3378 102.669 23.1648 101.284C22.9918 100.072 23.3378 99.2064 24.0297 98.3407C25.7594 96.4362 29.5648 96.4362 33.5432 96.2631C37.0026 96.2631 40.981 96.2629 42.3648 94.7047C42.8837 94.1853 43.0567 93.6661 42.8837 92.8004C42.8837 91.9348 42.5378 91.4154 42.1918 91.0691C40.6351 89.684 37.0026 90.0301 33.5432 90.3764C29.3918 90.7226 25.5862 91.0691 23.6835 89.3377C22.8187 88.6452 22.4729 87.6064 22.4729 86.2213C22.4729 85.0094 22.8187 83.9706 23.6835 83.1049C25.7592 81.0273 30.4295 81.2004 34.7538 81.3736C38.2133 81.5467 42.0188 81.5467 43.2297 80.3348C43.4026 80.1616 43.5754 79.8152 43.5754 79.1226C43.4025 78.0838 43.0565 77.3915 42.5376 77.0452C41.1538 76.0064 38.3864 76.5258 35.2729 76.8721C31.9864 77.3915 28.3538 77.9109 25.2403 76.8721C18.1484 74.2751 10.5378 63.887 6.5594 55.2303C-0.878435 38.9557 1.1972 20.4303 11.9215 9.52282C20.7432 0.34669 33.1971 -1.73096 45.9971 3.6362C55.8565 7.79142 61.9107 16.9675 62.9486 29.6064C64.3324 45.1885 57.5864 61.9825 47.381 68.9079C44.6134 70.8124 37.6945 73.2363 34.581 69.081C32.1594 65.7915 34.4079 52.8064 36.4835 42.9377C35.2727 43.1109 34.0621 43.284 32.5053 43.1109C31.2945 43.1109 30.2567 42.9377 29.3918 42.9377C31.1215 54.5377 31.8134 68.7348 31.8134 68.9079C31.8134 69.4273 31.4675 69.7736 30.9486 69.7736C30.4297 69.7736 30.0837 69.4273 30.0837 68.9079C30.0837 66.8303 29.2188 53.3258 27.6621 42.5915C22.9918 41.2064 21.6079 38.2631 21.0889 36.1855C20.397 32.7228 21.9538 28.9139 23.6835 28.2213C24.3754 27.8751 25.2405 28.0482 25.7594 28.7407C27.1432 30.6452 28.354 35.493 29.2188 41.2064C30.2567 41.3795 31.2945 41.5527 32.6783 41.5527C34.408 41.5527 35.7918 41.3795 37.0026 41.2064C38.2134 35.8392 39.4243 31.684 39.5972 31.1646C40.6351 28.2213 42.3648 28.3945 43.0567 28.5676C44.9594 29.087 46.343 32.2034 45.9971 35.3198C45.8241 36.878 44.6134 41.2062 38.5594 42.7644C36.4837 52.6331 34.2351 65.6183 36.1378 68.2154C38.3864 71.3318 44.2675 69.2542 46.5161 67.696C56.3756 61.1168 62.7756 45.0154 61.3918 29.9527C60.6999 23.0273 57.7594 10.5616 45.4783 5.36754C33.3702 0.173512 21.6079 2.25124 13.3052 10.908C3.09977 21.4691 1.02427 39.1288 8.28913 54.7109C12.2675 63.3676 19.5324 73.2363 25.9324 75.487C28.527 76.3527 31.8134 75.8333 35.0999 75.487C38.5594 74.9676 41.6727 74.4482 43.5754 76.0064C44.4403 76.6989 45.1322 77.7377 45.3052 79.2959C45.4781 80.3348 45.1324 81.2004 44.6134 81.893C42.8837 83.6243 39.2511 83.6241 34.9268 83.451C31.1214 83.2779 26.6243 83.1049 25.0675 84.8363C24.5486 85.3557 24.3754 85.8751 24.3754 86.7407C24.3754 87.6064 24.5486 88.1258 25.0675 88.4721C26.4513 89.8571 30.0837 89.5109 33.7161 89.1646C37.8675 88.8183 41.6729 88.4721 43.7486 90.2034C44.6134 90.896 44.9592 91.9348 45.1322 93.1467C45.1322 94.3586 44.7864 95.3974 44.0945 96.2631C42.1918 98.3407 38.0403 98.3407 33.8889 98.3407C30.4295 98.3407 26.7972 98.3407 25.7594 99.7258C25.5864 99.8989 25.2403 100.418 25.4133 101.284C25.5862 102.15 25.9324 102.669 26.4513 103.188C28.6999 104.92 34.2349 104.227 38.3862 103.535C42.5376 103.015 44.9592 102.669 45.3052 104.4C45.8241 106.651 43.5754 107.69 41.6727 108.555C40.8079 108.902 39.7702 109.421 39.5972 109.941C39.0783 110.98 39.4243 113.23 39.5972 113.923C39.5972 114.269 39.5972 114.442 39.4243 114.615C39.0783 114.615 38.7324 114.788 38.5594 114.788ZM42.3648 29.9527C42.0188 29.9527 41.4999 30.4719 41.154 31.5107C40.808 32.3764 39.9432 36.0124 38.9053 40.5139C43.0567 39.1288 43.9216 36.1855 44.0945 34.8004C44.4405 32.2034 43.4026 30.1258 42.3648 29.9527C42.5378 29.9527 42.5378 29.9527 42.3648 29.9527ZM24.5484 29.6064C24.0295 29.7795 22.6457 32.0301 22.8187 34.9734C22.9916 37.5704 24.7215 39.4751 27.4891 40.5139C26.6243 35.3198 25.5862 31.1646 24.5484 29.6064Z" fill="#D99459"/>
<path d="M42.3648 29.9527C42.0188 29.9527 41.4999 30.4719 41.154 31.5107C40.808 32.3764 39.9432 36.0124 38.9053 40.5139C43.0567 39.1288 43.9215 36.1855 44.0945 34.8004C44.4405 32.2034 43.4026 30.1258 42.3648 29.9527ZM42.3648 29.9527C42.5378 29.9527 42.5378 29.9527 42.3648 29.9527ZM38.5594 114.788H30.9486C30.4297 114.788 30.0837 114.442 30.0837 113.923V108.729C30.0837 108.209 30.4297 107.863 30.9486 107.863C31.4675 107.863 31.8134 108.209 31.8134 108.729V113.057H37.3484C37.1754 111.845 37.0026 110.114 37.6945 108.902C38.2134 108.036 39.2513 107.517 40.4621 106.824C42.0188 106.132 43.0567 105.439 43.0567 104.747C42.3648 104.574 39.9432 104.92 38.0405 105.093C33.3702 105.785 27.6621 106.478 24.8945 104.4C23.8567 103.708 23.3378 102.669 23.1648 101.284C22.9918 100.072 23.3378 99.2064 24.0297 98.3407C25.7594 96.4362 29.5648 96.4363 33.5432 96.2631C37.0026 96.2631 40.981 96.2629 42.3648 94.7047C42.8837 94.1853 43.0567 93.6661 42.8837 92.8004C42.8837 91.9348 42.5378 91.4154 42.1918 91.0691C40.6351 89.684 37.0026 90.0301 33.5432 90.3764C29.3918 90.7226 25.5862 91.0691 23.6835 89.3377C22.8187 88.6452 22.4729 87.6064 22.4729 86.2213C22.4729 85.0094 22.8187 83.9706 23.6835 83.1049C25.7592 81.0273 30.4295 81.2004 34.7538 81.3736C38.2133 81.5467 42.0188 81.5467 43.2297 80.3348C43.4026 80.1616 43.5754 79.8152 43.5754 79.1226C43.4025 78.0838 43.0565 77.3915 42.5376 77.0452C41.1538 76.0064 38.3864 76.5258 35.2729 76.8721C31.9864 77.3915 28.3538 77.9109 25.2403 76.8721C18.1484 74.2751 10.5378 63.887 6.5594 55.2303C-0.878435 38.9557 1.1972 20.4303 11.9215 9.52282C20.7432 0.34669 33.1971 -1.73096 45.9971 3.6362C55.8565 7.79142 61.9107 16.9675 62.9486 29.6064C64.3324 45.1885 57.5864 61.9825 47.381 68.9079C44.6134 70.8124 37.6945 73.2362 34.581 69.081C32.1594 65.7915 34.4079 52.8064 36.4835 42.9377C35.2727 43.1109 34.0621 43.284 32.5053 43.1109C31.2945 43.1109 30.2567 42.9377 29.3918 42.9377C31.1215 54.5377 31.8134 68.7348 31.8134 68.9079C31.8134 69.4273 31.4675 69.7736 30.9486 69.7736C30.4297 69.7736 30.0837 69.4273 30.0837 68.9079C30.0837 66.8303 29.2188 53.3258 27.6621 42.5915C22.9918 41.2064 21.6079 38.2631 21.0889 36.1855C20.397 32.7228 21.9538 28.9139 23.6835 28.2213C24.3754 27.8751 25.2405 28.0482 25.7594 28.7407C27.1432 30.6452 28.354 35.493 29.2188 41.2064C30.2567 41.3795 31.2945 41.5527 32.6783 41.5527C34.408 41.5527 35.7918 41.3795 37.0026 41.2064C38.2134 35.8392 39.4243 31.684 39.5972 31.1646C40.6351 28.2213 42.3648 28.3945 43.0567 28.5676C44.9594 29.087 46.343 32.2034 45.9971 35.3198C45.8241 36.878 44.6134 41.2062 38.5594 42.7644C36.4837 52.6331 34.2351 65.6183 36.1378 68.2154C38.3864 71.3318 44.2675 69.2542 46.5161 67.696C56.3756 61.1168 62.7756 45.0154 61.3918 29.9527C60.6999 23.0273 57.7594 10.5616 45.4783 5.36754C33.3702 0.173512 21.6079 2.25124 13.3052 10.908C3.09977 21.4691 1.02427 39.1288 8.28913 54.7109C12.2675 63.3676 19.5324 73.2363 25.9324 75.487C28.527 76.3527 31.8134 75.8333 35.0999 75.487C38.5594 74.9676 41.6727 74.4482 43.5754 76.0064C44.4403 76.6989 45.1322 77.7377 45.3052 79.2959C45.4781 80.3348 45.1324 81.2004 44.6134 81.893C42.8837 83.6243 39.2511 83.6241 34.9268 83.451C31.1214 83.2779 26.6243 83.1049 25.0675 84.8362C24.5486 85.3556 24.3754 85.8751 24.3754 86.7407C24.3754 87.6064 24.5486 88.1258 25.0675 88.4721C26.4513 89.8571 30.0837 89.5109 33.7161 89.1646C37.8675 88.8183 41.6729 88.4721 43.7486 90.2034C44.6134 90.896 44.9592 91.9348 45.1322 93.1467C45.1322 94.3586 44.7864 95.3974 44.0945 96.2631C42.1918 98.3407 38.0403 98.3407 33.8889 98.3407C30.4295 98.3407 26.7972 98.3407 25.7594 99.7258C25.5864 99.8989 25.2403 100.418 25.4133 101.284C25.5862 102.15 25.9324 102.669 26.4513 103.188C28.6999 104.92 34.2349 104.227 38.3862 103.535C42.5376 103.015 44.9592 102.669 45.3052 104.4C45.8241 106.651 43.5754 107.69 41.6727 108.555C40.8079 108.902 39.7702 109.421 39.5972 109.941C39.0783 110.98 39.4243 113.23 39.5972 113.923C39.5972 114.269 39.5972 114.442 39.4243 114.615C39.0783 114.615 38.7324 114.788 38.5594 114.788ZM24.5484 29.6064C24.0295 29.7795 22.6457 32.0301 22.8187 34.9734C22.9916 37.5704 24.7215 39.4751 27.4891 40.5139C26.6243 35.3198 25.5862 31.1646 24.5484 29.6064Z" stroke="#D99459" stroke-width="1.8"/>
</g>
<defs>
<clipPath id="clip0_0_12051">
<rect width="64" height="116" fill="white" transform="translate(0.851074)"/>
</clipPath>
</defs>
</svg>
