<svg width="23" height="42" viewBox="0 0 23 42" fill="none" xmlns="http://www.w3.org/2000/svg">
<path d="M13.6417 41.5243H10.9189C10.7332 41.5243 10.6095 41.4005 10.6095 41.2146V39.3564C10.6095 39.1706 10.7332 39.0467 10.9189 39.0467C11.1045 39.0467 11.2283 39.1706 11.2283 39.3564V40.9049H13.2084C13.1466 40.4714 13.0847 39.852 13.3323 39.4184C13.5179 39.1087 13.8892 38.9228 14.3224 38.675C14.8793 38.4273 15.2506 38.1796 15.2506 37.9318C15.0031 37.8699 14.1367 37.9937 13.456 38.0556C11.7852 38.3034 9.74311 38.5512 8.753 37.8079C8.38171 37.5602 8.19606 37.1885 8.13418 36.693C8.0723 36.2595 8.19606 35.9498 8.44359 35.6401C9.06241 34.9587 10.4238 34.9587 11.8471 34.8968C13.0847 34.8968 14.508 34.8967 15.0031 34.3393C15.1887 34.1534 15.2506 33.9677 15.1887 33.658C15.1887 33.3483 15.065 33.1625 14.9412 33.0386C14.3843 32.5431 13.0847 32.6669 11.8471 32.7908C10.3619 32.9147 9.00047 33.0386 8.31976 32.4192C8.01035 32.1714 7.88665 31.7998 7.88665 31.3043C7.88665 30.8707 8.01035 30.4991 8.31976 30.1894C9.06235 29.4461 10.7332 29.508 12.2802 29.57C13.5178 29.6319 14.8793 29.6319 15.3125 29.1983C15.3744 29.1364 15.4362 29.0125 15.4362 28.7647C15.3743 28.3931 15.2505 28.1454 15.0649 28.0215C14.5698 27.6498 13.5798 27.8357 12.4659 27.9595C11.2902 28.1454 9.99058 28.3312 8.8767 27.9595C6.33954 27.0304 3.61681 23.3141 2.19352 20.2171C-0.467398 14.3948 0.27517 7.76722 4.11185 3.86503C7.26783 0.582224 11.7233 -0.161066 16.3025 1.75906C19.8298 3.24561 21.9957 6.52841 22.367 11.05C22.8621 16.6246 20.4487 22.6327 16.7976 25.1103C15.8075 25.7917 13.3323 26.6588 12.2184 25.1723C11.352 23.9954 12.1564 19.3499 12.899 15.8194C12.4659 15.8813 12.0327 15.9433 11.4758 15.8813C11.0426 15.8813 10.6713 15.8194 10.3619 15.8194C10.9807 19.9693 11.2283 25.0484 11.2283 25.1103C11.2283 25.2961 11.1045 25.42 10.9189 25.42C10.7332 25.42 10.6095 25.2961 10.6095 25.1103C10.6095 24.367 10.3 19.5358 9.74311 15.6955C8.0723 15.2 7.57718 14.147 7.39154 13.4037C7.14401 12.1649 7.70095 10.8023 8.31976 10.5545C8.56729 10.4306 8.87676 10.4926 9.06241 10.7403C9.55746 11.4217 9.99064 13.156 10.3 15.2C10.6713 15.2619 11.0426 15.3239 11.5377 15.3239C12.1565 15.3239 12.6516 15.2619 13.0847 15.2C13.5179 13.2799 13.9511 11.7933 14.013 11.6075C14.3843 10.5545 15.0031 10.6164 15.2506 10.6784C15.9313 10.8642 16.4263 11.9791 16.3025 13.094C16.2406 13.6515 15.8075 15.1999 13.6417 15.7574C12.8991 19.2879 12.0946 23.9335 12.7753 24.8626C13.5798 25.9775 15.6838 25.2342 16.4882 24.6767C20.0155 22.323 22.3051 16.5627 21.8101 11.1739C21.5626 8.69632 20.5106 4.23665 16.1169 2.37846C11.7852 0.520269 7.57718 1.26359 4.60686 4.36057C0.955823 8.13886 0.213303 14.4567 2.81234 20.0313C4.23563 23.1283 6.83466 26.6588 9.12429 27.464C10.0525 27.7737 11.2283 27.5879 12.404 27.464C13.6417 27.2782 14.7555 27.0924 15.4362 27.6498C15.7456 27.8976 15.9931 28.2692 16.055 28.8267C16.1169 29.1983 15.9932 29.508 15.8075 29.7558C15.1887 30.3752 13.8891 30.3751 12.3421 30.3132C10.9807 30.2512 9.37182 30.1894 8.81488 30.8088C8.62924 30.9946 8.56729 31.1804 8.56729 31.4901C8.56729 31.7998 8.62924 31.9856 8.81488 32.1095C9.30994 32.605 10.6095 32.4811 11.909 32.3573C13.3941 32.2334 14.7555 32.1095 15.4981 32.7289C15.8075 32.9767 15.9312 33.3483 15.9931 33.7819C15.9931 34.2154 15.8694 34.5871 15.6219 34.8968C14.9412 35.6401 13.456 35.6401 11.9708 35.6401C10.7332 35.6401 9.4337 35.6401 9.06241 36.1356C9.00053 36.1975 8.8767 36.3833 8.93858 36.693C9.00047 37.0027 9.12429 37.1885 9.30994 37.3744C10.1144 37.9938 12.0946 37.746 13.5797 37.4982C15.0649 37.3124 15.9312 37.1885 16.055 37.8079C16.2406 38.6132 15.4362 38.9847 14.7555 39.2944C14.4461 39.4183 14.0748 39.6042 14.013 39.79C13.8273 40.1616 13.9511 40.9669 14.013 41.2146C14.013 41.3385 14.013 41.4004 13.9511 41.4624C13.8273 41.4624 13.7036 41.5243 13.6417 41.5243ZM15.0031 11.1739C14.8793 11.1739 14.6937 11.3597 14.5699 11.7313C14.4461 12.041 14.1367 13.3418 13.7654 14.9522C15.2506 14.4567 15.56 13.4037 15.6219 12.9082C15.7457 11.9791 15.3744 11.2358 15.0031 11.1739C15.065 11.1739 15.065 11.1739 15.0031 11.1739ZM8.62917 11.05C8.44353 11.112 7.94847 11.9171 8.01035 12.9701C8.07224 13.8992 8.69112 14.5806 9.68123 14.9522C9.37182 13.094 9.00047 11.6075 8.62917 11.05Z" fill="#21201E"/>
<path d="M15.0031 11.1739C14.8793 11.1739 14.6937 11.3597 14.5699 11.7313C14.4461 12.041 14.1367 13.3418 13.7654 14.9522C15.2506 14.4567 15.56 13.4037 15.6219 12.9082C15.7457 11.9791 15.3744 11.2358 15.0031 11.1739ZM15.0031 11.1739C15.065 11.1739 15.065 11.1739 15.0031 11.1739ZM13.6417 41.5243H10.9189C10.7332 41.5243 10.6095 41.4005 10.6095 41.2146V39.3564C10.6095 39.1706 10.7332 39.0467 10.9189 39.0467C11.1045 39.0467 11.2283 39.1706 11.2283 39.3564V40.9049H13.2084C13.1466 40.4714 13.0847 39.852 13.3323 39.4184C13.5179 39.1087 13.8892 38.9228 14.3224 38.675C14.8793 38.4273 15.2506 38.1796 15.2506 37.9318C15.0031 37.8699 14.1367 37.9937 13.456 38.0556C11.7852 38.3034 9.74311 38.5512 8.753 37.8079C8.38171 37.5602 8.19606 37.1885 8.13418 36.693C8.0723 36.2595 8.19606 35.9498 8.44359 35.6401C9.06241 34.9587 10.4238 34.9587 11.8471 34.8968C13.0847 34.8968 14.508 34.8967 15.0031 34.3393C15.1887 34.1534 15.2506 33.9677 15.1887 33.658C15.1887 33.3483 15.065 33.1625 14.9412 33.0386C14.3843 32.5431 13.0847 32.6669 11.8471 32.7908C10.3619 32.9147 9.00047 33.0386 8.31976 32.4192C8.01035 32.1714 7.88665 31.7998 7.88665 31.3043C7.88665 30.8707 8.01035 30.4991 8.31976 30.1894C9.06235 29.4461 10.7332 29.508 12.2802 29.57C13.5178 29.6319 14.8793 29.6319 15.3125 29.1983C15.3744 29.1364 15.4362 29.0125 15.4362 28.7647C15.3743 28.3931 15.2505 28.1454 15.0649 28.0215C14.5698 27.6498 13.5798 27.8357 12.4659 27.9595C11.2902 28.1454 9.99058 28.3312 8.8767 27.9595C6.33954 27.0304 3.61681 23.3141 2.19352 20.2171C-0.467398 14.3948 0.27517 7.76722 4.11185 3.86503C7.26783 0.582224 11.7233 -0.161066 16.3025 1.75906C19.8298 3.24561 21.9957 6.52841 22.367 11.05C22.8621 16.6246 20.4487 22.6327 16.7976 25.1103C15.8075 25.7917 13.3323 26.6588 12.2184 25.1723C11.352 23.9954 12.1564 19.3499 12.899 15.8194C12.4659 15.8813 12.0327 15.9433 11.4758 15.8813C11.0426 15.8813 10.6713 15.8194 10.3619 15.8194C10.9807 19.9693 11.2283 25.0484 11.2283 25.1103C11.2283 25.2961 11.1045 25.42 10.9189 25.42C10.7332 25.42 10.6095 25.2961 10.6095 25.1103C10.6095 24.367 10.3 19.5358 9.74311 15.6955C8.0723 15.2 7.57718 14.147 7.39154 13.4037C7.14401 12.1649 7.70095 10.8023 8.31976 10.5545C8.56729 10.4306 8.87676 10.4926 9.06241 10.7403C9.55746 11.4217 9.99064 13.156 10.3 15.2C10.6713 15.2619 11.0426 15.3239 11.5377 15.3239C12.1565 15.3239 12.6516 15.2619 13.0847 15.2C13.5179 13.2799 13.9511 11.7933 14.013 11.6075C14.3843 10.5545 15.0031 10.6164 15.2506 10.6784C15.9313 10.8642 16.4263 11.9791 16.3025 13.094C16.2406 13.6515 15.8075 15.1999 13.6417 15.7574C12.8991 19.2879 12.0946 23.9335 12.7753 24.8626C13.5798 25.9775 15.6838 25.2342 16.4882 24.6767C20.0155 22.323 22.3051 16.5627 21.8101 11.1739C21.5626 8.69632 20.5106 4.23665 16.1169 2.37846C11.7852 0.520269 7.57718 1.26359 4.60686 4.36057C0.955823 8.13886 0.213303 14.4567 2.81234 20.0313C4.23563 23.1283 6.83466 26.6588 9.12429 27.464C10.0525 27.7737 11.2283 27.5879 12.404 27.464C13.6417 27.2782 14.7555 27.0924 15.4362 27.6498C15.7456 27.8976 15.9931 28.2692 16.055 28.8267C16.1169 29.1983 15.9932 29.508 15.8075 29.7558C15.1887 30.3752 13.8891 30.3751 12.3421 30.3132C10.9807 30.2512 9.37182 30.1894 8.81488 30.8088C8.62924 30.9946 8.56729 31.1804 8.56729 31.4901C8.56729 31.7998 8.62924 31.9856 8.81488 32.1095C9.30994 32.605 10.6095 32.4811 11.909 32.3573C13.3941 32.2334 14.7555 32.1095 15.4981 32.7289C15.8075 32.9767 15.9312 33.3483 15.9931 33.7819C15.9931 34.2154 15.8694 34.5871 15.6219 34.8968C14.9412 35.6401 13.456 35.6401 11.9708 35.6401C10.7332 35.6401 9.4337 35.6401 9.06241 36.1356C9.00053 36.1975 8.8767 36.3833 8.93858 36.693C9.00047 37.0027 9.12429 37.1885 9.30994 37.3744C10.1144 37.9938 12.0946 37.746 13.5797 37.4982C15.0649 37.3124 15.9312 37.1885 16.055 37.8079C16.2406 38.6132 15.4362 38.9847 14.7555 39.2944C14.4461 39.4183 14.0748 39.6042 14.013 39.79C13.8273 40.1616 13.9511 40.9669 14.013 41.2146C14.013 41.3385 14.013 41.4004 13.9511 41.4624C13.8273 41.4624 13.7036 41.5243 13.6417 41.5243ZM8.62917 11.05C8.44353 11.112 7.94847 11.9171 8.01035 12.9701C8.07224 13.8992 8.69112 14.5806 9.68123 14.9522C9.37182 13.094 9.00047 11.6075 8.62917 11.05Z" stroke="#21201E" stroke-width="0.8"/>
</svg>
