<svg width="28" height="45" viewBox="0 0 28 45" fill="none" xmlns="http://www.w3.org/2000/svg">
<path d="M11.6316 44.347C7.10851 44.347 2.72907 44.2018 2.4419 43.8389C2.29831 43.6938 2.37009 43.476 2.51368 43.3309C2.65727 43.2583 2.80083 43.2583 2.94442 43.3309C4.09314 43.6938 17.0162 43.7663 20.5342 43.476C19.4572 43.1131 17.3752 42.7502 15.8675 42.4599C14.0726 42.097 12.4931 41.8067 11.9906 41.589C11.7034 41.4438 11.4881 41.1535 11.3445 40.5003C10.7701 37.8874 11.0573 29.6857 12.0624 28.4518C12.4932 27.8712 13.8572 27.7986 16.2265 27.5809C18.3803 27.4357 21.3957 27.218 21.9701 26.3471C22.0419 26.2019 22.1137 26.0567 22.0419 25.8389C21.8265 25.6212 20.4624 25.9115 19.4572 26.0567C17.5188 26.4196 14.7906 26.9276 12.0624 26.4922C11.9189 26.6373 11.8471 26.7825 11.7035 26.9276C11.3445 27.4357 10.9854 27.9438 10.1957 27.9438C10.1957 27.9438 10.1957 27.9438 10.1239 27.9438C7.61109 27.9438 1.8675 22.2099 0.790577 19.5244C0.503401 18.8712 0.503401 18.3631 0.790577 18.0728C1.00596 17.9276 1.14957 17.7825 1.43675 17.8551C2.08291 17.8551 2.72902 18.6535 3.73415 19.8873C5.17005 21.6293 7.18033 24.0971 10.1239 25.2584C10.6265 25.4761 11.2009 25.6212 11.7753 25.7663C12.4214 25.1857 13.3547 24.6051 15.2213 24.5326C21.5393 24.5326 26.6367 19.3793 26.6367 12.9922C26.6367 5.15349 20.7496 1.59698 15.2213 1.59698C9.76494 1.59698 3.80602 5.15349 3.80602 12.9922C3.80602 17.2744 6.3188 20.6857 8.61622 22.5002C9.90853 23.5163 10.9137 23.8067 11.3445 23.7341C11.9189 23.5889 12.0624 23.226 12.206 22.7905C12.3496 22.3551 12.6368 21.7018 13.5701 21.9196C14.0009 21.9922 14.5035 21.5567 15.006 21.1938C15.5804 20.6857 16.3701 20.0325 16.9444 20.7583C17.088 20.8309 17.7342 20.6131 18.6675 19.7422C19.9598 18.5809 20.6778 17.2018 20.3906 16.6212C19.8163 15.3873 21.1086 14.226 22.1137 13.3551C22.6163 12.9196 23.2624 12.3389 23.2624 12.0486C23.2624 12.0486 23.1906 12.0486 23.1188 11.976C22.688 11.9035 21.8265 11.6858 21.4676 10.0164C21.1804 8.78256 21.2521 8.12926 21.3239 7.76636C21.3239 7.69377 21.3239 7.54861 21.3239 7.54861C21.2521 7.47603 20.8932 7.25829 20.3189 6.96797C19.9599 6.82281 19.6008 6.60504 19.0265 6.31472C18.5239 6.0244 18.2367 5.73411 17.9496 5.44379C17.5188 5.00831 17.3753 4.79059 16.3701 5.00833C15.5804 5.15349 13.8573 5.95186 13.1394 7.6212C12.6368 8.7099 12.565 9.50836 12.7804 10.0164C13.0676 10.5971 13.9291 10.7422 14.6471 10.8873C15.2932 11.0325 15.8675 11.1051 16.1547 11.468C17.2316 12.7745 16.729 14.1535 16.2983 15.46C15.9393 16.5487 15.5803 17.5647 15.9393 18.5809C16.0829 18.9438 16.0829 19.3067 15.8675 19.597C15.1496 20.6857 12.4932 20.9034 12.1342 20.976C11.9189 20.976 11.7753 20.8309 11.7753 20.6131C11.7753 20.3954 11.9189 20.2502 12.1342 20.2502C13.1394 20.1776 14.9342 19.8147 15.2932 19.2341C15.365 19.1615 15.365 19.0164 15.2932 18.8712C14.7906 17.6373 15.2214 16.3309 15.6522 15.2422C16.083 14.0083 16.4419 12.9196 15.6522 11.9035C15.5086 11.7583 15.006 11.6131 14.5753 11.5405C13.7137 11.3954 12.6367 11.1776 12.206 10.3067C11.847 9.58087 11.9188 8.63732 12.5649 7.25829C13.4265 5.37121 15.3649 4.4277 16.2983 4.20996C17.5906 3.91963 18.0932 4.28246 18.5958 4.86311C18.8112 5.08085 19.0265 5.37117 19.4572 5.58892C19.9598 5.87924 20.3906 6.097 20.7496 6.24216C21.9701 6.89539 22.1855 6.96795 22.1137 7.76636C22.0419 8.05668 21.9701 8.63732 22.2572 9.72603C22.5444 10.8873 22.9752 11.0326 23.3342 11.1051C23.6213 11.1777 24.0521 11.2502 24.0521 11.9035C23.9803 12.4841 23.406 13.0647 22.688 13.718C21.8265 14.5164 20.8213 15.3873 21.1803 16.1131C21.8265 17.5647 19.7444 19.8873 18.3803 20.8309C17.3034 21.5567 16.8008 21.3389 16.5137 21.0486C16.3701 20.9034 16.2265 21.0486 15.5803 21.5567C15.006 22.0647 14.2881 22.6454 13.4983 22.4276C13.2112 22.3551 13.2111 22.3551 12.9957 22.7905C12.8521 23.226 12.5649 23.9519 11.6316 24.1697C10.9137 24.3874 9.62135 23.8793 8.25724 22.8631C5.81624 20.976 3.15984 17.347 3.15984 12.7744C3.15984 4.42765 9.40603 0.653488 15.2932 0.653488C21.1086 0.653488 27.4265 4.42765 27.4265 12.7744C27.4265 19.5244 21.9701 25.0405 15.2932 25.0405C14.0727 25.1131 13.3548 25.3309 12.8522 25.6938C15.2214 25.9841 17.5906 25.476 19.3854 25.1857C21.3239 24.8228 22.5444 24.6051 22.7598 25.476C22.9034 25.9115 22.8316 26.2744 22.6162 26.6373C21.8265 27.7986 19.0265 28.0163 16.3701 28.2341C14.8624 28.3793 12.9239 28.5244 12.7085 28.8147C11.847 29.9034 11.5599 40.0647 12.4214 40.7905C12.8522 40.9357 14.5034 41.2986 16.1547 41.6615C21.1085 42.6776 22.0419 42.968 22.0419 43.476C22.0419 43.5486 22.0419 43.7663 21.7548 43.9115C21.1086 44.1292 16.2983 44.347 11.6316 44.347ZM1.50853 18.4357C1.50853 18.4357 1.43675 18.4357 1.43675 18.5083C1.43675 18.5083 1.36492 18.726 1.58031 19.1615C2.65723 21.7744 8.18552 27.1454 10.2676 27.1454C10.2676 27.1454 10.2676 27.1454 10.3394 27.1454C10.7701 27.1454 10.9137 26.9276 11.2726 26.4196C11.3444 26.347 11.3445 26.2744 11.4163 26.2744C10.9855 26.1293 10.4829 26.0567 10.0521 25.8389C6.89316 24.6051 4.81108 21.9922 3.37518 20.2502C2.58543 19.3793 1.79571 18.5083 1.50853 18.4357Z" fill="#21201E" stroke="#21201E" stroke-width="0.6"/>
</svg>
