<svg width="80" height="126" viewBox="0 0 80 126" fill="none" xmlns="http://www.w3.org/2000/svg">
<path opacity="0.2" d="M32.5356 72.188C26.4643 69.9275 13.9706 61.7317 12.5661 47.0317C10.8106 28.6567 13.4439 10.2817 27.7078 6.78171C41.9717 3.28171 51.1883 2.84421 60.6244 6.78171C70.0605 10.7192 77.3022 26.688 77.3022 33.4692C77.3022 40.2505 74.0105 54.9067 65.0133 61.9067C57.8155 67.5067 44.7513 70.2192 39.1189 70.8755L35.3883 72.188C38.3142 72.6255 45.6583 73.238 51.6272 72.188C57.5961 71.138 62.0142 70.8755 63.4772 70.8755L65.0133 73.5005C62.2337 75.1775 55.665 78.5755 51.6272 78.7505C46.58 78.9692 36.9244 78.5317 35.3883 80.5005C34.9881 81.0134 34.5134 82.1351 34.0535 83.5793L32.9018 98.5038C33.7194 102.393 34.1628 110.287 34.2911 114.188L60.6244 121.188C48.7744 122.282 24.0211 124.338 19.8078 123.813C15.5944 123.288 9.71332 122.719 7.29943 122.5C6.64111 122.063 6.7728 121.188 12.5661 121.188H40.6549C41.5326 121.188 33.8524 118.563 32.5356 116.375C31.4821 114.625 32.0966 106.896 32.5356 103.25L32.9018 98.5038C32.7872 97.9582 32.6651 97.4914 32.5356 97.1255C31.5619 94.3756 32.7482 87.6784 34.0535 83.5793L34.2911 80.5005C33.6327 79.9171 32.2282 78.2254 31.8771 76.1255C31.526 74.0255 32.1698 72.6255 32.5356 72.188Z" fill="#D99459" stroke="#D99459"/>
<path d="M33.5313 124.171C20.7697 124.171 8.41344 123.764 7.60319 122.748C7.19806 122.342 7.40058 121.732 7.80571 121.326C8.21084 121.123 8.61591 121.123 9.02103 121.326C12.2621 122.342 48.7236 122.545 58.6492 121.732C55.6108 120.716 49.7364 119.7 45.4826 118.887C40.4185 117.871 35.9621 117.058 34.5441 116.449C33.7339 116.042 33.1264 115.229 32.7212 113.4C31.1007 106.084 31.911 83.1193 34.7469 79.6645C35.9623 78.0387 39.8108 77.8354 46.4954 77.2258C52.5723 76.8193 61.08 76.2098 62.7005 73.7711C62.9031 73.3647 63.1056 72.958 62.9031 72.3484C62.2954 71.7387 58.4467 72.5516 55.6108 72.958C50.1415 73.9742 42.4443 75.3967 34.7469 74.1774C34.3417 74.5838 34.1392 74.9903 33.7341 75.3967C32.7212 76.8193 31.7082 78.2419 29.48 78.2419C29.48 78.2419 29.48 78.2419 29.2774 78.2419C22.1877 78.2419 5.98257 62.1871 2.94411 54.6677C2.13386 52.8387 2.13386 51.4161 2.94411 50.6032C3.5518 50.1967 3.95699 49.7903 4.76725 49.9935C6.59032 49.9935 8.4133 52.229 11.2492 55.6838C15.3005 60.5613 20.9723 67.4711 29.2774 70.7227C30.6954 71.3324 32.3161 71.7387 33.9366 72.1451C35.7597 70.5193 38.3928 68.8937 43.6595 68.6905C61.4851 68.6905 75.8672 54.2613 75.8672 36.3774C75.8672 14.4291 59.2569 4.47088 43.6595 4.47088C28.2646 4.47088 11.452 14.4291 11.452 36.3774C11.452 48.3677 18.5416 57.9193 25.0236 63C28.6698 65.8451 31.5058 66.658 32.7212 66.4548C34.3417 66.0483 34.7467 65.0322 35.1518 63.8129C35.5569 62.5935 36.3674 60.7645 39.0007 61.3742C40.2161 61.5774 41.6341 60.358 43.052 59.3419C44.6725 57.9193 46.9005 56.0903 48.521 58.1225C48.9262 58.3258 50.7492 57.7161 53.3826 55.2774C57.0287 52.0258 59.0546 48.1645 58.2443 46.5387C56.6238 43.0838 60.27 39.8322 63.1058 37.3935C64.5238 36.1742 66.3469 34.5484 66.3469 33.7355C66.3469 33.7355 66.1441 33.7354 65.9415 33.5322C64.7262 33.329 62.2956 32.7195 61.2828 28.0453C60.4725 24.5905 60.6749 22.7613 60.8774 21.7451C60.8774 21.5419 60.8774 21.1355 60.8774 21.1355C60.6749 20.9322 59.6623 20.3225 58.0417 19.5096C57.0289 19.1032 56.0159 18.4935 54.3954 17.6806C52.9774 16.8677 52.1672 16.0549 51.3569 15.2419C50.1415 14.0226 49.7366 13.413 46.9007 14.0227C44.6725 14.4291 39.811 16.6645 37.7853 21.3387C36.3674 24.3871 36.1648 26.6228 36.7725 28.0453C37.5828 29.6711 40.0135 30.0774 42.0392 30.4838C43.8623 30.8903 45.4826 31.0937 46.2928 32.1098C49.3313 35.7679 47.9133 39.6292 46.698 43.2873C45.6851 46.3357 44.6723 49.1806 45.6851 52.0258C46.0903 53.0419 46.0903 54.058 45.4826 54.8709C43.4569 57.9193 35.9623 58.529 34.9494 58.7322C34.3417 58.7322 33.9366 58.3258 33.9366 57.7161C33.9366 57.1064 34.3417 56.7 34.9494 56.7C37.7853 56.4967 42.8494 55.4806 43.8623 53.8548C44.0648 53.6516 44.0648 53.2451 43.8623 52.8387C42.4443 49.3838 43.6597 45.7258 44.8751 42.6774C46.0905 39.2225 47.1033 36.1742 44.8751 33.329C44.47 32.9225 43.052 32.5161 41.8366 32.3129C39.4058 31.9064 36.3672 31.2967 35.1518 28.858C34.139 26.8258 34.3415 24.1838 36.1646 20.3226C38.5954 15.0387 44.0646 12.3969 46.698 11.7872C50.3441 10.9743 51.7623 11.9902 53.1802 13.616C53.7879 14.2257 54.3954 15.0386 55.6108 15.6483C57.0287 16.4612 58.2443 17.0709 59.2571 17.4774C62.7007 19.3064 63.3084 19.5096 63.1058 21.7451C62.9033 22.558 62.7005 24.1838 63.5108 27.2322C64.321 30.4838 65.5364 30.8905 66.5492 31.0937C67.3595 31.2969 68.5749 31.5 68.5749 33.329C68.3723 34.9548 66.7518 36.5806 64.7262 38.4096C62.2954 40.6451 59.4595 43.0838 60.4723 45.1161C62.2954 49.1806 56.421 55.6838 52.5723 58.3258C49.5339 60.358 48.1159 59.7483 47.3056 58.9354C46.9005 58.529 46.4954 58.9354 44.6723 60.358C43.0518 61.7806 41.0264 63.4064 38.7982 62.7967C37.9879 62.5935 37.9877 62.5935 37.38 63.8129C36.9749 65.0322 36.1646 67.0647 33.5313 67.6744C31.5056 68.284 27.8595 66.8612 24.0108 64.0161C17.1237 58.7322 9.62883 48.5709 9.62883 35.7677C9.62883 12.3967 27.252 1.8291 43.8623 1.8291C60.27 1.8291 78.0954 12.3967 78.0954 35.7677C78.0954 54.6677 62.7007 70.1129 43.8623 70.1129C40.4187 70.3161 38.393 70.9258 36.9751 71.9419C43.6597 72.7548 50.3441 71.3322 55.4082 70.5193C60.8774 69.5032 64.321 68.8935 64.9287 71.3322C65.3339 72.5516 65.1313 73.5677 64.5236 74.5838C62.2954 77.8354 54.3956 78.4451 46.9007 79.0548C42.6469 79.4613 37.1774 79.8677 36.5697 80.6806C34.139 83.729 33.3289 112.181 35.7597 114.213C36.9751 114.619 41.6339 115.635 46.2928 116.652C60.2697 119.497 62.9031 120.31 62.9031 121.732C62.9031 121.935 62.9033 122.545 62.093 122.952C60.27 123.561 46.698 124.171 33.5313 124.171ZM4.96975 51.6193C4.96975 51.6193 4.76725 51.6193 4.76725 51.8225C4.76725 51.8225 4.56458 52.4322 5.17228 53.6516C8.21074 60.9677 23.8084 76.0064 29.6828 76.0064C29.6828 76.0064 29.6828 76.0064 29.8853 76.0064C31.1007 76.0064 31.5056 75.3967 32.5185 73.9742C32.721 73.7709 32.7212 73.5677 32.9238 73.5677C31.7084 73.1612 30.2903 72.958 29.0749 72.3484C20.1621 68.8935 14.2877 61.5774 10.2364 56.7C8.00817 54.2613 5.78001 51.8225 4.96975 51.6193Z" fill="#D99459" stroke="#D99459" stroke-width="1.2"/>
</svg>
