<svg width="72" height="127" viewBox="0 0 72 127" fill="none" xmlns="http://www.w3.org/2000/svg">
<path opacity="0.2" d="M8.97939 78.8832C10.57 81.7212 23.4278 83.219 29.6578 83.6131L34.4294 85.9781L41.985 125C40.9246 115.803 38.6446 95.7533 38.0084 89.1314C37.3721 82.5095 36.4177 79.5401 36.0201 78.8832L44.371 83.6131L55.1078 81.6423C59.7472 79.2774 69.2646 72.0248 70.219 61.9343C71.1733 51.8438 61.3379 40.1241 56.3008 35.5255L36.0201 17H34.4294L18.9206 31.1898C13.486 35.7883 2.37821 47.1927 1.42382 56.0219C0.230836 67.0584 6.99108 75.3358 8.97939 78.8832Z" fill="#D99459"/>
<path fill-rule="evenodd" clip-rule="evenodd" d="M41.487 124.646C41.487 124.858 41.3458 125 41.2047 125C40.993 125 40.8519 124.858 40.8519 124.717C39.864 116.86 38.8761 108.933 37.7471 102.279C36.6181 95.6258 35.348 90.1756 33.8662 87.2028C31.961 83.4514 29.5618 83.593 26.3159 83.8761C24.5519 84.0177 22.5056 84.1593 20.177 83.7346C16.5783 83.0268 12.2034 80.9033 8.60466 77.5766C5.57046 74.8161 3.03019 71.2771 1.97175 67.101C0.772183 62.7126 1.19556 57.6871 2.81851 52.6616C4.51202 47.4238 7.54622 42.186 11.4272 37.656C15.3081 33.1968 19.9653 29.5162 24.2696 26.1187C28.4328 22.792 32.2432 19.8192 34.4307 16.7756C34.5718 16.5632 34.7835 16.2801 34.9246 16.0678C35.1363 15.7139 35.348 15.2892 35.5597 14.9353C34.2895 13.3781 33.3017 11.9625 32.596 10.6176C31.2553 8.14027 30.9025 6.08761 31.1848 4.67199C31.3259 3.96418 31.6082 3.32715 31.961 2.90246C32.3138 2.47777 32.8077 2.19465 33.3017 2.05309C33.8662 1.91152 34.5012 2.05309 35.0657 2.47777L35.2069 2.54855C36.4064 3.39793 37.4649 5.3798 37.6766 7.92793C37.8883 9.98058 37.5354 12.3871 36.3359 14.8645C40.1463 19.4653 45.7913 24.8446 51.013 29.7993L53.1298 31.852C56.9402 35.4618 60.3273 38.7177 63.0086 42.0445C65.7606 45.3712 67.8775 48.7687 69.077 52.5201C70.3472 56.413 70.6294 60.7307 69.8532 64.836C69.1476 68.6582 67.5247 72.3388 64.9138 75.2408C62.3736 78.0721 58.916 80.1955 55.2467 81.6111C51.1541 83.1683 46.8497 83.8761 43.3922 83.5222C40.358 83.2391 38.0294 82.1774 36.4064 80.691C34.5718 78.9922 33.7251 76.798 33.7251 74.4622C33.7251 72.4096 34.4307 70.3569 35.5597 68.3043C35.9125 67.6672 36.3359 67.0302 36.7592 66.3932C36.0536 66.464 35.348 66.464 34.7129 66.3224C32.8783 66.0393 31.1142 64.9776 29.5618 63.6327C27.5861 61.8632 25.822 59.5982 24.6224 57.6163C23.4934 55.8468 22.7878 54.2896 22.5761 53.3694C22.5056 53.0863 22.5056 52.8032 22.5761 52.5908C22.7172 52.3077 22.9289 52.1662 23.2817 52.2369C23.564 52.3077 23.9168 52.5201 24.4107 53.0155C25.6103 54.148 27.5861 56.6254 29.5618 59.0319C31.2553 61.0846 32.9489 63.1373 34.0073 64.3405C34.8541 65.1899 35.2069 65.473 35.348 65.3315C35.6302 65.0483 35.6302 63.9158 35.7008 62.1463C35.7008 61.7216 35.7008 61.2262 35.7714 60.7307C35.9125 58.1118 36.1947 54.5727 36.7592 51.246C37.1826 48.7687 37.7471 46.3621 38.5233 44.451C38.5939 44.1679 38.735 43.9555 38.8761 43.6724C38.5939 43.6016 38.3116 43.6016 38.0294 43.5309C37.0415 43.2477 36.1242 42.6815 35.4186 41.9737C34.6424 41.1951 33.9367 40.2749 33.5839 39.2132C33.4428 38.7885 33.3017 38.3638 33.1605 38.0099C32.9489 37.3021 32.9489 36.5943 32.9489 36.0988C32.9489 35.4618 33.1605 35.0371 33.5134 34.8956H33.5839C34.3601 34.6832 35.5597 36.4527 36.7592 38.2931C36.8298 38.4346 36.8298 38.647 36.6887 38.7885C36.5476 38.8593 36.3359 38.8593 36.1948 38.7177C35.1363 37.1606 34.0779 35.5326 33.7251 35.6034C33.6545 35.6742 33.5839 35.8865 33.5839 36.2404C33.5839 36.7359 33.6545 37.3021 33.7956 37.9391C33.8662 38.2931 34.0073 38.7177 34.1484 39.0716C34.5012 39.9918 35.1363 40.8412 35.8419 41.549C36.5476 42.186 37.3237 42.6815 38.1705 42.9646C38.4528 43.0354 38.8056 43.1062 39.1584 43.177C39.7935 41.9029 40.5696 40.912 41.2753 40.2041C42.616 38.7885 44.0272 38.2931 44.8034 38.3638C45.0151 38.3638 45.1562 38.4346 45.2974 38.5762C45.5796 38.7885 45.7207 39.0716 45.7207 39.4256C45.7207 39.7087 45.6502 40.0626 45.509 40.4873C45.2268 41.1243 44.7329 41.8321 44.0978 42.3984C43.3216 43.1062 42.2632 43.5309 41.2047 43.814C40.6402 43.9555 40.0757 44.0263 39.5112 43.9555C39.3701 44.2387 39.2289 44.5926 39.0878 44.8757C38.3116 46.716 37.7471 49.1226 37.3943 51.5291C36.8298 54.8558 36.5476 58.3949 36.477 60.943C36.477 61.4385 36.4064 61.934 36.4064 62.2879C36.3359 64.199 36.2653 65.4022 35.8419 65.8977C36.3359 65.8977 36.8298 65.8977 37.2532 65.7562C38.2411 64.4821 39.3701 63.2788 40.5696 62.2171C42.1926 60.7307 44.0272 59.5274 45.5796 58.6072C47.6259 57.404 49.3194 56.6962 50.0956 56.6962C50.3073 56.6962 50.4485 56.6962 50.5896 56.7669C50.8718 56.9085 50.9424 57.1208 50.8013 57.4747C50.7307 57.6871 50.5896 57.8994 50.3779 58.1826C49.7428 59.0319 48.3316 60.2352 46.5675 61.6508C44.9445 62.9249 43.0393 64.2697 40.993 65.2607C39.864 65.7562 38.735 66.1808 37.606 66.3932C37.0415 67.1718 36.477 67.9504 36.0536 68.729C34.9952 70.6401 34.2895 72.6219 34.2895 74.533C34.2895 76.6565 35.1363 78.7091 36.7592 80.2663C38.2411 81.6819 40.4991 82.6729 43.3922 82.8852C46.7086 83.1683 50.9424 82.5313 54.9645 80.9741C58.4926 79.6293 61.8796 77.5766 64.3493 74.8161C66.8896 71.9849 68.442 68.4458 69.1476 64.7652C69.8532 60.8015 69.571 56.5546 68.3714 52.7324C67.1718 49.0518 65.1255 45.7251 62.4441 42.4691C59.7627 39.1424 56.3757 35.8865 52.5653 32.3474L50.4484 30.2948C45.2974 25.4109 39.6523 20.1731 35.9125 15.5723C35.7714 15.8554 35.5597 16.2093 35.348 16.4924C35.2069 16.7756 34.9952 16.9879 34.8541 17.2003C32.596 20.3146 28.7856 23.3582 24.5519 26.6142C20.3181 29.9409 15.5904 33.6215 11.78 38.0099C7.89903 42.4691 4.93539 47.6362 3.31245 52.8032C1.76006 57.6871 1.33669 62.6418 2.4657 66.8886C3.52414 70.8524 5.99384 74.3207 8.95748 77.0104C12.4856 80.1955 16.6488 82.3189 20.177 82.956C22.435 83.3807 24.4107 83.2391 26.1748 83.0975C29.6324 82.8144 32.2432 82.6021 34.3601 86.7782C35.9125 89.8217 37.1826 95.3427 38.3116 102.067C39.5112 108.862 40.4991 116.719 41.487 124.646ZM35.8419 14.369C36.9004 12.104 37.1826 9.9098 36.9709 8.06949C36.7592 5.73371 35.7714 3.96418 34.7129 3.18559L34.5718 3.1148C34.1484 2.83168 33.725 2.7609 33.3017 2.83168C32.9489 2.90246 32.596 3.1148 32.3138 3.46871C32.0315 3.82262 31.8198 4.31809 31.6787 4.95512C31.467 6.29996 31.7493 8.21105 33.0194 10.476C33.7956 11.6085 34.7129 12.9534 35.8419 14.369ZM41.1341 62.7126C40.1463 63.5619 39.2289 64.4821 38.3822 65.473C39.2289 65.2607 40.0051 64.9068 40.8519 64.5529C42.8277 63.6327 44.7329 62.2879 46.2852 61.0138C48.0493 59.5982 49.39 58.3949 50.0251 57.6163C50.1662 57.4748 50.2368 57.3332 50.3073 57.1916C49.6723 57.2624 48.0493 57.8994 46.0735 59.0319C44.5212 60.0937 42.7571 61.2969 41.1341 62.7126ZM30.0558 63.208C31.467 64.4113 32.9489 65.3315 34.5718 65.6854C34.2895 65.473 34.0073 65.1899 33.6545 64.836C32.5255 63.7035 30.832 61.5801 29.1385 59.5274C27.1627 57.1208 25.1869 54.6435 23.9874 53.5818C23.6346 53.2279 23.3523 53.0863 23.2112 53.0155C23.2112 53.0863 23.2112 53.1571 23.2817 53.2987C23.4934 54.148 24.1285 55.6344 25.1869 57.3332C26.3865 59.2443 28.08 61.5093 30.0558 63.208ZM41.8398 40.558C41.2047 41.1951 40.5696 42.0445 40.0051 43.1062C40.4285 43.1062 40.7813 43.0354 41.2047 42.9646C42.1926 42.7523 43.1099 42.3276 43.8155 41.6905C44.38 41.1951 44.8034 40.6288 45.0151 40.0626C45.1562 39.7795 45.1562 39.4963 45.1562 39.284C45.1562 39.1424 45.0857 39.0009 45.0151 38.9301C44.9445 38.8593 44.874 38.8593 44.8034 38.8593C44.2389 38.8593 43.0393 39.3548 41.8398 40.558Z" stroke="#D99459" stroke-width="2.5"/>
</svg>
