<svg width="27" height="46" viewBox="0 0 27 46" fill="none" xmlns="http://www.w3.org/2000/svg">
<path fill-rule="evenodd" clip-rule="evenodd" d="M15.6163 44.9029C15.6163 44.9788 15.5658 45.0295 15.5153 45.0295C15.4396 45.0295 15.3891 44.9788 15.3891 44.9282C15.0357 42.1174 14.6823 39.2813 14.2784 36.901C13.8745 34.5207 13.4201 32.5709 12.8899 31.5074C12.2083 30.1653 11.35 30.2159 10.1888 30.3172C9.5577 30.3679 8.82562 30.4185 7.99256 30.2666C6.70511 30.0134 5.13997 29.2537 3.85251 28.0635C2.76701 27.076 1.85822 25.8099 1.47956 24.3158C1.0504 22.7459 1.20187 20.948 1.78249 19.1501C2.38835 17.2762 3.47385 15.4024 4.86228 13.7818C6.25071 12.1865 7.91683 10.8697 9.45672 9.65423C10.9461 8.46408 12.3093 7.40054 13.0919 6.31168C13.1424 6.23571 13.2181 6.13443 13.2686 6.05846C13.3443 5.93185 13.4201 5.77991 13.4958 5.6533C13.0414 5.09621 12.688 4.58976 12.4355 4.10864C11.9559 3.22236 11.8297 2.48801 11.9307 1.98157C11.9811 1.72834 12.0821 1.50044 12.2083 1.34851C12.3346 1.19658 12.5113 1.09529 12.688 1.04464C12.8899 0.993997 13.1171 1.04464 13.3191 1.19658L13.3696 1.2219C13.7987 1.52577 14.1774 2.23479 14.2531 3.14639C14.3289 3.88074 14.2026 4.7417 13.7735 5.62798C15.1367 7.27393 17.1562 9.19843 19.0243 10.971L19.7816 11.7053C21.1448 12.9968 22.3565 14.1616 23.3158 15.3517C24.3003 16.5419 25.0576 17.7574 25.4868 19.0994C25.9412 20.4922 26.0422 22.0368 25.7645 23.5055C25.512 24.8729 24.9314 26.1897 23.9974 27.2279C23.0886 28.2408 21.8516 29.0005 20.5389 29.5069C19.0748 30.064 17.5349 30.3172 16.2979 30.1906C15.2124 30.0893 14.3793 29.7095 13.7987 29.1777C13.1424 28.57 12.8394 27.785 12.8394 26.9494C12.8394 26.215 13.0919 25.4807 13.4958 24.7463C13.622 24.5184 13.7735 24.2905 13.9249 24.0626C13.6725 24.0879 13.4201 24.0879 13.1929 24.0373C12.5365 23.936 11.9054 23.5562 11.35 23.075C10.6432 22.442 10.0121 21.6317 9.58294 20.9227C9.17904 20.2896 8.9266 19.7325 8.85086 19.4033C8.82562 19.302 8.82562 19.2007 8.85086 19.1248C8.90135 19.0235 8.97708 18.9728 9.10331 18.9982C9.20428 19.0235 9.3305 19.0994 9.50721 19.2767C9.93636 19.6819 10.6432 20.5681 11.35 21.4291C11.9559 22.1634 12.5618 22.8978 12.9404 23.3283C13.2434 23.6321 13.3696 23.7334 13.4201 23.6828C13.521 23.5815 13.521 23.1763 13.5463 22.5433C13.5463 22.3913 13.5463 22.2141 13.5715 22.0368C13.622 21.0999 13.723 19.8338 13.9249 18.6436C14.0764 17.7574 14.2784 16.8964 14.5561 16.2127C14.5813 16.1114 14.6318 16.0354 14.6823 15.9342C14.5813 15.9088 14.4803 15.9088 14.3793 15.8835C14.0259 15.7822 13.6977 15.5796 13.4453 15.3264C13.1676 15.0479 12.9152 14.7187 12.789 14.3389C12.7385 14.1869 12.688 14.035 12.6375 13.9084C12.5618 13.6552 12.5618 13.4019 12.5618 13.2247C12.5618 12.9968 12.6375 12.8448 12.7637 12.7942H12.789C13.0666 12.7182 13.4958 13.3513 13.9249 14.0097C13.9502 14.0603 13.9502 14.1363 13.8997 14.1869C13.8492 14.2122 13.7735 14.2122 13.723 14.1616C13.3443 13.6045 12.9657 13.0221 12.8394 13.0474C12.8142 13.0727 12.789 13.1487 12.789 13.2753C12.789 13.4526 12.8142 13.6552 12.8647 13.8831C12.8899 14.0097 12.9404 14.1616 12.9909 14.2882C13.1171 14.6174 13.3443 14.9213 13.5968 15.1745C13.8492 15.4024 14.1269 15.5796 14.4298 15.6809C14.5308 15.7063 14.657 15.7316 14.7833 15.7569C15.0104 15.3011 15.2881 14.9466 15.5406 14.6934C16.0202 14.1869 16.5251 14.0097 16.8028 14.035C16.8785 14.035 16.929 14.0603 16.9795 14.111C17.0805 14.1869 17.131 14.2882 17.131 14.4148C17.131 14.5161 17.1057 14.6427 17.0552 14.7947C16.9543 15.0226 16.7775 15.2758 16.5503 15.4784C16.2727 15.7316 15.894 15.8835 15.5153 15.9848C15.3134 16.0354 15.1114 16.0608 14.9095 16.0354C14.859 16.1367 14.8085 16.2633 14.758 16.3646C14.4803 17.023 14.2784 17.884 14.1521 18.7449C13.9502 19.9351 13.8492 21.2012 13.824 22.1128C13.824 22.2901 13.7987 22.4673 13.7987 22.5939C13.7735 23.2776 13.7482 23.7081 13.5968 23.8854C13.7735 23.8854 13.9502 23.8854 14.1017 23.8347C14.4551 23.3789 14.859 22.9484 15.2881 22.5686C15.8688 22.0368 16.5251 21.6064 17.0805 21.2772C17.8126 20.8467 18.4184 20.5935 18.6961 20.5935C18.7718 20.5935 18.8223 20.5935 18.8728 20.6188C18.9738 20.6694 18.999 20.7454 18.9485 20.872C18.9233 20.948 18.8728 21.0239 18.7971 21.1252C18.5699 21.4291 18.065 21.8596 17.4339 22.366C16.8533 22.8218 16.1717 23.3029 15.4396 23.6575C15.0357 23.8347 14.6318 23.9866 14.2279 24.0626C14.0259 24.3412 13.824 24.6197 13.6725 24.8983C13.2938 25.582 13.0414 26.291 13.0414 26.9747C13.0414 27.7344 13.3443 28.4687 13.9249 29.0258C14.4551 29.5322 15.2629 29.8867 16.2979 29.9627C17.4844 30.064 18.999 29.8361 20.438 29.279C21.7002 28.7979 22.9119 28.0635 23.7954 27.076C24.7042 26.0631 25.2596 24.797 25.512 23.4802C25.7645 22.0622 25.6635 20.5428 25.2344 19.1754C24.8052 17.8587 24.0731 16.6685 23.1138 15.5037C22.1546 14.3135 20.9428 13.1487 19.5797 11.8826L18.8223 11.1482C16.9795 9.401 14.96 7.52715 13.622 5.8812C13.5715 5.98249 13.4958 6.1091 13.4201 6.21039C13.3696 6.31168 13.2938 6.38765 13.2434 6.46362C12.4355 7.5778 11.0724 8.66666 9.5577 9.83148C8.04305 11.0216 6.35169 12.3384 4.9885 13.9084C3.60007 15.5037 2.53981 17.3522 1.9592 19.2007C1.40382 20.948 1.25236 22.7205 1.65627 24.2399C2.03493 25.6579 2.91848 26.8987 3.97873 27.861C5.24094 29.0005 6.73035 29.7601 7.99256 29.988C8.80037 30.14 9.50721 30.0893 10.1383 30.0387C11.3753 29.9374 12.3093 29.8614 13.0666 31.3554C13.622 32.4443 14.0764 34.4194 14.4803 36.8251C14.9095 39.256 15.2629 42.0668 15.6163 44.9029ZM13.5968 5.45072C13.9754 4.64041 14.0764 3.85542 14.0007 3.19704C13.9249 2.3614 13.5715 1.72834 13.1929 1.4498L13.1424 1.42448C12.9909 1.32319 12.8394 1.29787 12.688 1.32319C12.5618 1.34851 12.4355 1.42448 12.3346 1.55109C12.2336 1.6777 12.1579 1.85496 12.1074 2.08286C12.0316 2.56398 12.1326 3.24768 12.587 4.058C12.8647 4.46315 13.1929 4.94428 13.5968 5.45072ZM15.4901 22.7459C15.1367 23.0497 14.8085 23.3789 14.5056 23.7334C14.8085 23.6575 15.0862 23.5308 15.3891 23.4042C16.0959 23.075 16.7775 22.5939 17.3329 22.1381C17.964 21.6317 18.4437 21.2012 18.6709 20.9227C18.7213 20.872 18.7466 20.8214 18.7718 20.7707C18.5446 20.796 17.964 21.0239 17.2572 21.4291C16.7018 21.8089 16.0707 22.2394 15.4901 22.7459ZM11.5267 22.9231C12.0316 23.3536 12.5618 23.6828 13.1424 23.8094C13.0414 23.7334 12.9404 23.6321 12.8142 23.5055C12.4103 23.1004 11.8044 22.3407 11.1986 21.6064C10.4917 20.7454 9.7849 19.8591 9.35575 19.4793C9.22953 19.3527 9.12855 19.302 9.07806 19.2767C9.07806 19.302 9.07806 19.3273 9.10331 19.378C9.17904 19.6819 9.40624 20.2136 9.7849 20.8214C10.214 21.5051 10.8199 22.3154 11.5267 22.9231ZM15.7425 14.82C15.5153 15.0479 15.2881 15.3517 15.0862 15.7316C15.2376 15.7316 15.3639 15.7063 15.5153 15.6809C15.8688 15.605 16.1969 15.453 16.4494 15.2251C16.6513 15.0479 16.8028 14.8453 16.8785 14.6427C16.929 14.5414 16.929 14.4401 16.929 14.3642C16.929 14.3135 16.9038 14.2629 16.8785 14.2376C16.8533 14.2122 16.828 14.2122 16.8028 14.2122C16.6008 14.2122 16.1717 14.3895 15.7425 14.82Z" stroke="#21201E"/>
</svg>
