<svg width="52" height="40" viewBox="0 0 52 40" fill="none" xmlns="http://www.w3.org/2000/svg">
<path opacity="0.2" d="M3.16738 35.1846C2.51318 33.3936 1.34496 29.0856 1.90571 26.1813C2.60664 22.5509 2.60668 19.0658 3.16738 18.3397C3.72808 17.6136 4.98976 16.1615 6.5318 16.0162C7.28392 16.0162 8.3474 15.784 9.46238 15.3542C7.90925 14.5596 5.99907 13.1304 4.98976 11.5146C3.44771 9.04593 5.97106 5.12513 8.91496 4.39906C11.8589 3.67299 14.5224 5.56078 14.8028 9.48158C14.9996 12.2337 12.0882 14.3419 9.46238 15.3542C10.2821 15.7736 11.0024 16.0162 11.4383 16.0162C12.7 16.0162 15.7841 14.8545 16.7654 19.0657C17.7467 23.277 20.4102 32.7159 20.4102 35.1846C20.4102 37.6532 15.6439 36.2011 12.2794 36.3463C8.91496 36.4915 4.42906 36.4915 3.16738 35.1846Z" fill="#787266"/>
<path opacity="0.2" d="M19.7846 3.94111C20.121 1.38533 23.4761 0.649571 25.1116 0.601166C29.878 1.32724 31.7004 4.66718 30.8591 8.87841C30.244 11.9574 26.5566 13.251 24.3443 13.951C24.3666 13.9548 24.3887 13.9581 24.4107 13.9609C25.5322 14.1061 30.7191 15.1226 31.7004 15.7035C32.6817 16.2844 35.4854 22.093 35.7658 23.6903C36.0461 25.2877 36.1863 27.0303 36.3265 28.7728C36.4667 30.5154 36.3265 31.6771 36.3265 32.9841C36.3265 34.291 36.3265 35.5979 35.7658 36.1788C35.205 36.7596 35.205 37.6309 34.3639 38.2118C33.5228 38.7927 34.6443 39.0831 32.6817 39.2283C30.7191 39.3735 29.3172 39.2283 25.1116 39.2283H17.4014C16.2799 39.2283 14.7379 31.9676 14.8781 28.7728C15.0182 25.5781 15.9992 18.8982 16.7003 18.1722C17.4014 17.4461 18.6632 15.1226 19.7846 14.5418C20.9059 13.9609 22.0274 15.1226 22.7283 14.5418C22.9168 14.3856 23.5308 14.2085 24.3443 13.951C23.2341 13.7641 21.8571 12.4689 20.3453 10.4758C18.8033 8.44276 19.364 7.13583 19.7846 3.94111Z" fill="#787266"/>
<path opacity="0.2" d="M43.0412 4.10866C44.4431 4.30228 47.3029 5.29942 47.5272 7.73903C47.8076 10.7885 47.2468 13.5476 44.7235 14.4189C43.6692 14.7829 42.7129 14.8174 41.8033 14.8825C42.8482 15.0805 43.9492 15.1351 44.7235 15.4354C46.4057 16.0878 46.5458 16.3067 47.5272 16.3067C48.5085 16.3067 48.929 16.3067 49.6299 17.4684C50.3309 18.6301 51.0318 19.6466 51.5925 22.9866C52.1533 26.3265 51.4523 25.31 51.5925 26.7622C51.7327 28.2143 50.471 34.3133 50.1907 35.4751C49.9103 36.6368 47.5272 36.782 45.5645 36.782C43.6019 36.782 36.032 39.2506 33.6488 39.6863C31.2655 40.1219 32.6675 37.9437 32.6675 36.782C32.6675 35.6203 32.5273 34.0229 32.6675 31.6995C32.8076 29.376 33.2282 27.4882 33.6488 25.31C34.0693 23.1318 36.0319 18.3397 38.1347 16.3067C39.359 15.1231 40.5357 14.9731 41.8033 14.8825C40.578 14.6502 39.4297 14.2208 38.9758 12.9668C38.1347 10.6433 38.1347 10.6433 38.1347 9.19118C38.1347 7.73903 37.2936 7.73903 38.1347 6.28688C38.9758 4.83473 40.5178 4.10866 42.2001 4.10866H43.0412Z" fill="#787266"/>
<path d="M18.5584 39.0651C18.2277 39.0651 17.897 38.7165 17.4341 37.9497C15.1854 33.9759 15.4499 27.4226 16.3097 22.5425C15.7145 20.0327 15.1193 18.0806 14.6563 17.5229C13.6642 16.3377 11.9447 16.1286 10.159 15.8497C9.56374 15.78 8.9685 15.6406 8.43941 15.5709C7.91031 15.6406 7.38122 15.7103 6.85212 15.78C5.00028 15.9891 3.21458 16.268 2.55321 17.5229C1.2966 19.8235 0.304543 31.9541 2.48707 34.185C2.61934 34.3244 2.61934 34.5336 2.48707 34.673C2.35479 34.8124 2.15638 34.8124 2.02411 34.673C-0.555238 32.0238 0.701363 19.4052 1.95797 17.1743C2.81775 15.6406 4.73574 15.3617 6.71985 15.0828H6.78598C4.93414 14.316 3.47912 12.8519 3.47912 9.29643C3.47912 7.69296 4.00823 6.29864 5.06642 5.32261C5.99234 4.48602 7.24894 3.99801 8.50555 3.99801C11.0188 3.99801 13.5981 5.81063 13.5981 9.29643C13.5981 12.9217 12.0108 14.4554 10.0267 15.1526C10.0928 15.1526 10.159 15.1526 10.2251 15.1526C12.0769 15.4314 13.9949 15.7103 15.1193 17.1046C15.5161 17.5926 16.0452 19.0566 16.5743 21.0087C16.9711 19.1961 17.4341 17.8018 17.8309 17.0349C18.8229 15.2223 21.1377 14.8737 23.5187 14.5948C23.6509 14.5948 23.7832 14.5948 23.9155 14.5251C21.6007 13.6885 19.7489 11.9456 19.7489 7.55353C19.7489 3.23114 22.8573 1.2791 25.7673 1.2791C28.6774 1.2791 31.7858 3.23114 31.7858 7.55353C31.7858 12.0851 29.7356 13.7582 27.2885 14.5948C27.4869 14.5948 27.6192 14.6646 27.8176 14.6646C30.0662 15.0131 32.3149 15.3617 33.7038 16.9652C34.2329 17.6623 34.8281 19.0566 35.3572 20.8693C35.8202 18.9869 36.217 17.5926 36.4816 17.1046C37.3413 15.5709 39.2593 15.292 41.2434 15.0131H41.3096C39.4577 14.2463 38.0027 12.7822 38.0027 9.22671C38.0027 5.60148 40.6482 3.92829 43.0291 3.92829C45.5423 3.92829 48.1217 5.74091 48.1217 9.22671C48.1217 12.8519 46.5344 14.3857 44.5503 15.0828C44.6164 15.0828 44.6826 15.0828 44.7487 15.0828C46.6005 15.3617 48.5185 15.6406 49.6428 17.0349C51.3624 19.1264 52.0899 31.1872 49.6428 34.6033C49.5106 34.7427 49.3121 34.8124 49.1799 34.673C49.0476 34.5336 48.9815 34.3244 49.1137 34.185C51.3624 31.0478 50.701 19.4052 49.1137 17.5229C48.1217 16.3377 46.4021 16.1286 44.6164 15.8497C44.0212 15.78 43.4259 15.6406 42.8969 15.5709C42.3678 15.6406 41.8387 15.7103 41.3096 15.78C39.4577 15.9891 37.672 16.268 37.0106 17.5229C36.68 18.1503 36.1509 19.963 35.6218 22.2636C36.7461 27.3528 37.0768 34.4639 34.6297 38.0194C34.4313 38.2982 33.8361 39.1348 33.2408 38.7862C31.9842 37.9497 33.5715 28.538 34.9604 22.3333C34.4313 20.0327 33.7699 18.2201 33.1747 17.5229C31.9842 16.1286 29.934 15.78 27.6853 15.4314C27.0239 15.292 26.2964 15.2223 25.5689 15.0828C24.9076 15.2223 24.2462 15.292 23.6509 15.3617C21.4023 15.6406 19.2859 15.9194 18.4261 17.4532C17.9632 18.3595 17.3679 20.2418 16.9711 22.6122C18.36 28.4683 19.6166 37.1131 19.0213 38.6468C18.9552 38.9257 18.6907 38.9954 18.5584 39.0651ZM16.7065 24.3551C16.1113 28.8169 16.1113 34.3244 17.9632 37.6011C18.2277 38.0194 18.36 38.2285 18.4261 38.2983C19.0214 37.1828 17.9632 30.0021 16.7065 24.3551ZM35.2911 23.867C34.1006 29.7232 32.9763 37.3919 33.6377 38.1588C33.6377 38.1588 33.8361 38.0194 34.1006 37.6011C36.217 34.5336 36.1509 28.538 35.2911 23.867ZM8.57168 4.69517C6.45529 4.69517 4.20664 6.15921 4.20664 9.29643C4.20664 13.2702 6.12461 14.316 8.43941 14.804C10.8865 14.3857 13.0029 13.34 13.0029 9.29643C13.0029 6.15921 10.6881 4.69517 8.57168 4.69517ZM43.0953 4.69517C40.9789 4.69517 38.7302 6.15921 38.7302 9.29643C38.7302 13.2702 40.6482 14.316 42.963 14.804C45.4101 14.3857 47.5264 13.34 47.5264 9.29643C47.5264 7.90211 47.0635 6.64722 46.1376 5.88034C45.3439 5.11347 44.2196 4.69517 43.0953 4.69517ZM25.8335 1.97626C23.2541 1.97626 20.4764 3.71916 20.4764 7.55353C20.4764 12.3639 22.7912 13.6188 25.6351 14.2463C28.6112 13.6885 31.1906 12.5034 31.1906 7.55353C31.1906 3.71916 28.4128 1.97626 25.8335 1.97626Z" fill="#21201E" stroke="#21201E" stroke-width="0.6"/>
</svg>
