<svg width="145" height="110" viewBox="0 0 145 110" fill="none" xmlns="http://www.w3.org/2000/svg">
<path opacity="0.2" d="M8.31822 97.0994C6.48959 92.0933 3.22418 80.0514 4.79158 71.9333C6.75082 61.7856 6.75095 52.0439 8.31822 50.0144C9.8855 47.9848 13.4121 43.9258 17.7225 43.5199C19.8248 43.5199 22.7975 42.8708 25.9141 41.6693C21.5727 39.4481 16.2334 35.4533 13.4121 30.9368C9.1018 24.0364 16.1551 13.0769 24.3839 11.0474C32.6128 9.01786 40.0579 14.2946 40.8416 25.2541C41.3917 32.9469 33.2537 38.8398 25.9141 41.6693C28.2055 42.8416 30.2189 43.5199 31.4372 43.5199C34.9639 43.5199 43.5846 40.2726 46.3275 52.0439C49.0704 63.8152 56.5156 90.1991 56.5156 97.0994C56.5156 104 43.1927 99.9408 33.7883 100.347C24.3839 100.753 11.8449 100.753 8.31822 97.0994Z" fill="#D99459"/>
<path opacity="0.2" d="M54.7655 9.76748C55.706 2.62353 65.0842 0.566943 69.6558 0.431641C82.9787 2.46117 88.0727 11.797 85.7212 23.5683C84.0019 32.1747 73.6948 35.7906 67.511 37.7473C67.5732 37.7578 67.635 37.767 67.6966 37.775C70.8314 38.1809 85.3298 41.0222 88.0727 42.6459C90.8157 44.2695 98.6527 60.5057 99.4364 64.9707C100.22 69.4356 100.612 74.3064 101.004 79.1773L101.004 79.1774C101.396 84.0483 101.004 87.2955 101.004 90.9487C101.004 94.6018 101.004 98.255 99.4364 99.8786C97.869 101.502 97.869 103.938 95.5179 105.561C93.1668 107.185 96.3016 107.997 90.8157 108.403C85.3298 108.809 81.4113 108.403 69.6558 108.403H48.1041C44.9693 108.403 40.659 88.1073 41.0508 79.1774C41.4427 70.2475 44.1847 51.5758 46.1444 49.5463C48.1041 47.5167 51.6312 41.0222 54.7655 39.3986C57.8999 37.775 61.0347 41.0222 62.9939 39.3986C63.5207 38.9621 65.2371 38.4669 67.511 37.7473C64.4077 37.2248 60.5586 33.6043 56.3329 28.0332C52.0226 22.3506 53.59 18.6974 54.7655 9.76748Z" fill="#D99459"/>
<path opacity="0.2" d="M119.773 10.2363C123.692 10.7775 131.685 13.5648 132.312 20.384C133.096 28.908 131.529 36.6202 124.475 39.0557C121.529 40.0732 118.855 40.1696 116.313 40.3514C119.234 40.905 122.311 41.0577 124.475 41.897C129.178 43.7205 129.569 44.3324 132.312 44.3324C135.056 44.3324 136.231 44.3324 138.19 47.5797C140.149 50.8269 142.109 53.6683 143.676 63.0041C145.243 72.3399 143.284 69.4986 143.676 73.5577C144.068 77.6167 140.541 94.6648 139.757 97.912C138.974 101.159 132.312 101.565 126.826 101.565C121.34 101.565 100.181 108.466 93.5194 109.683C86.8576 110.901 90.7764 104.812 90.7764 101.565C90.7764 98.3179 90.3846 93.853 90.7764 87.3585C91.1683 80.864 92.3438 75.5872 93.5194 69.4986C94.6949 63.41 100.181 50.0151 106.059 44.3324C109.481 41.0239 112.77 40.6048 116.313 40.3514C112.888 39.7023 109.678 38.5019 108.41 34.9966C106.059 28.5021 106.059 28.5021 106.059 24.443C106.059 20.384 103.708 20.384 106.059 16.3249C108.41 12.2659 112.72 10.2363 117.422 10.2363H119.773Z" fill="#D99459"/>
<path d="M51.3375 107.946C50.4131 107.946 49.4888 106.972 48.1947 104.828C41.9092 93.7205 42.6487 75.4027 45.052 61.7617C43.3882 54.7464 41.7244 49.29 40.4303 47.731C37.6573 44.4182 32.8507 43.8336 27.8593 43.0541C26.1955 42.8593 24.5317 42.4695 23.0528 42.2747C21.5738 42.4695 20.0949 42.6644 18.616 42.8592C13.4397 43.4439 8.44827 44.2233 6.5996 47.731C3.08712 54.1617 0.314101 88.0692 6.41472 94.3051C6.78445 94.6948 6.78445 95.2795 6.41472 95.6692C6.04498 96.059 5.49039 96.059 5.12065 95.6692C-2.08917 88.2641 1.4233 52.9925 4.93577 46.7567C7.33905 42.4695 12.7002 41.69 18.2462 40.9105H18.4311C13.2548 38.767 9.18773 34.6747 9.18773 24.7363C9.18773 20.2543 10.6667 16.3568 13.6246 13.6286C16.2127 11.2902 19.7252 9.92612 23.2376 9.92612C30.2626 9.92612 37.4724 14.9928 37.4724 24.7363C37.4724 34.8696 33.0356 39.1567 27.4896 41.1054C27.6745 41.1054 27.8593 41.1054 28.0442 41.1054C33.2205 41.8849 38.5816 42.6644 41.7244 46.5618C42.8336 47.9259 44.3125 52.0182 45.7914 57.4745C46.9006 52.4079 48.1947 48.5105 49.3039 46.3669C52.0769 41.3003 58.5473 40.3259 65.2025 39.5465C65.5722 39.5465 65.942 39.5465 66.3117 39.3516C59.8414 37.0132 54.6651 32.1414 54.6651 19.8645C54.6651 7.78255 63.3538 2.32617 71.488 2.32617C79.6221 2.32617 88.3109 7.78255 88.3109 19.8645C88.3109 32.5311 82.58 37.208 75.7399 39.5465C76.2945 39.5465 76.6643 39.7413 77.2189 39.7413C83.5043 40.7157 89.7898 41.69 93.672 46.1721C95.151 48.1208 96.8148 52.0182 98.2937 57.0848C99.5878 51.8233 100.697 47.9259 101.436 46.5618C103.84 42.2747 109.201 41.4952 114.747 40.7157H114.932C109.755 38.5721 105.688 34.4798 105.688 24.5414C105.688 14.4081 113.083 9.73123 119.738 9.73123C126.763 9.73123 133.973 14.7979 133.973 24.5414C133.973 34.6747 129.536 38.9618 123.99 40.9105C124.175 40.9105 124.36 40.9105 124.545 40.9105C129.721 41.69 135.082 42.4695 138.225 46.3669C143.032 52.213 145.065 85.9257 138.225 95.4743C137.855 95.8641 137.301 96.059 136.931 95.6692C136.561 95.2795 136.376 94.6948 136.746 94.3051C143.032 85.5359 141.183 52.9925 136.746 47.731C133.973 44.4182 129.167 43.8336 124.175 43.0541C122.511 42.8593 120.848 42.4695 119.369 42.2747C117.89 42.4695 116.411 42.6644 114.932 42.8592C109.755 43.4439 104.764 44.2233 102.915 47.731C101.991 49.4848 100.512 54.5515 99.0332 60.9822C102.176 75.2078 103.1 95.0846 96.2602 105.023C95.7056 105.802 94.0418 108.141 92.378 107.167C88.8655 104.828 93.3023 78.5206 97.1845 61.1771C95.7056 54.7464 93.8569 49.6797 92.1931 47.731C88.8655 43.8336 83.1346 42.8592 76.8491 41.8849C75.0005 41.4952 72.9669 41.3003 70.9334 40.9105C69.0847 41.3003 67.236 41.4952 65.5722 41.69C59.2867 42.4695 53.371 43.249 50.9677 47.5362C49.6737 50.0695 48.0099 55.331 46.9007 61.9566C50.7829 78.3257 54.2953 102.49 52.6315 106.777C52.4467 107.556 51.7072 107.751 51.3375 107.946ZM46.1612 66.8284C44.4974 79.3001 44.4974 94.6949 49.6737 103.854C50.4131 105.023 50.7829 105.608 50.9677 105.803C52.6315 102.685 49.6736 82.6129 46.1612 66.8284ZM98.1089 65.4643C94.7812 81.8334 91.6385 103.269 93.4872 105.413C93.4872 105.413 94.0418 105.023 94.7812 103.854C100.697 95.2795 100.512 78.5206 98.1089 65.4643ZM23.4225 11.8748C17.5067 11.8748 11.2213 15.9671 11.2213 24.7363C11.2213 35.8439 16.5824 38.767 23.0528 40.1311C29.8929 38.9618 35.8086 36.0388 35.8086 24.7363C35.8086 15.9671 29.3382 11.8748 23.4225 11.8748ZM119.923 11.8748C114.007 11.8748 107.722 15.9671 107.722 24.7363C107.722 35.8439 113.083 38.767 119.553 40.1311C126.394 38.9618 132.309 36.0388 132.309 24.7363C132.309 20.8389 131.015 17.3312 128.427 15.1876C126.209 13.044 123.066 11.8748 119.923 11.8748ZM71.6728 4.27488C64.463 4.27488 56.6986 9.14665 56.6986 19.8645C56.6986 33.3106 63.1689 36.8183 71.1182 38.5721C79.4373 37.0131 86.6471 33.7003 86.6471 19.8645C86.6471 9.14665 78.8827 4.27488 71.6728 4.27488Z" fill="#D99459" stroke="#D99459" stroke-width="1.00994"/>
</svg>
